<svg xmlns="http://www.w3.org/2000/svg" xmlns:xlink="http://www.w3.org/1999/xlink" width="1040" height="235.39000000000001"><rect width="1040" height="235.39000000000001" rx="0" ry="0" class="a"></rect><svg height="195.39000000000001" viewBox="0 0 100 19.539" width="1000" x="20" xmlns="http://www.w3.org/2000/svg" xmlns:xlink="http://www.w3.org/1999/xlink" y="20"><style>.a{fill:rgb(40,45,53)}.b{font-family:'Fira Code',Monaco,Consolas,Menlo,'Bitstream Vera Sans Mono','Powerline Symbols',monospace}.c{fill:transparent}.d{fill:rgb(185,192,203);font-weight:bold;white-space:pre}.e{fill:rgb(232,131,136);white-space:pre}.f{fill:rgb(185,192,203);white-space:pre}.g{fill:rgb(168,204,140);white-space:pre}</style><g font-family="&#x27;Fira Code&#x27;,Monaco,Consolas,Menlo,&#x27;Bitstream Vera Sans Mono&#x27;,&#x27;Powerline Symbols&#x27;,monospace" font-size="1.67" class="b"><defs><symbol id="a"><rect height="10" width="100" x="0" y="0" class="c"></rect></symbol></defs><rect height="19.539" width="100" class="a"></rect><svg x="0" y="0" width="100"><svg x="0"><use xlink:href="#a"></use><text x="0" y="1.67" class="d">Loading</text><text x="8.016" y="1.67" class="d">required</text><text x="17.034" y="1.67" class="d">package:</text><text x="26.052" y="1.67" class="d">PowerTOST</text><text x="0" y="3.8409999999999997" class="e">✖</text><text x="2.004" y="3.8409999999999997" class="e">Can&#x27;t</text><text x="8.016" y="3.8409999999999997" class="e">accept</text><text x="15.029999999999998" y="3.8409999999999997" class="e">(bio)equivalence</text><text x="0" y="6.012" class="f">Equiv.</text><text x="7.013999999999999" y="6.012" class="f">Region:</text><text x="16.032" y="6.012" class="f">|---------------0---------------|</text><text x="0" y="8.183" class="f">Estim.</text><text x="7.013999999999999" y="8.183" class="f">Inter.:</text><text x="17.034" y="8.183" class="g">(---------------x--------------</text><text x="48.096" y="8.183" class="e">--)</text><text x="0" y="10.354" class="f">CI</text><text x="3.006" y="10.354" class="f">=</text><text x="6.012" y="10.354" class="f">(-0.21174</text><text x="16.032" y="10.354" class="f">;</text><text x="18.035999999999998" y="10.354" class="f">0.25715)</text><text x="0" y="14.696" class="f">Method:</text><text x="8.016" y="14.696" class="f">TOST</text><text x="0" y="16.866999999999997" class="f">alpha</text><text x="6.012" y="16.866999999999997" class="f">=</text><text x="8.016" y="16.866999999999997" class="f">0.05;</text><text x="14.027999999999999" y="16.866999999999997" class="f">Equiv.</text><text x="21.041999999999998" y="16.866999999999997" class="f">lim.</text><text x="26.052" y="16.866999999999997" class="f">=</text><text x="28.055999999999997" y="16.866999999999997" class="f">+/-</text><text x="32.064" y="16.866999999999997" class="f">0.22314</text><text x="0" y="19.037999999999997" class="f">Mean</text><text x="5.01" y="19.037999999999997" class="f">=</text><text x="7.013999999999999" y="19.037999999999997" class="f">0.02270;</text><text x="16.032" y="19.037999999999997" class="f">Stand.</text><text x="23.045999999999996" y="19.037999999999997" class="f">dev.</text><text x="28.055999999999997" y="19.037999999999997" class="f">=</text><text x="30.059999999999995" y="19.037999999999997" class="f">0.13428;</text><text x="39.077999999999996" y="19.037999999999997" class="f">df</text><text x="42.083999999999996" y="19.037999999999997" class="f">=</text><text x="44.087999999999994" y="19.037999999999997" class="f">16</text></svg></svg></g></svg></svg>