<svg xmlns="http://www.w3.org/2000/svg" xmlns:xlink="http://www.w3.org/1999/xlink" width="1040" height="257.1"><rect width="1040" height="257.1" rx="0" ry="0" class="a"></rect><svg height="217.10000000000002" viewBox="0 0 100 21.71" width="1000" x="20" xmlns="http://www.w3.org/2000/svg" xmlns:xlink="http://www.w3.org/1999/xlink" y="20"><style>.a{fill:rgb(40,45,53)}.b{font-family:'Fira Code',Monaco,Consolas,Menlo,'Bitstream Vera Sans Mono','Powerline Symbols',monospace}.c{fill:transparent}.d{fill:rgb(185,192,203);white-space:pre}.e{fill:rgb(232,131,136);white-space:pre}.f{fill:rgb(168,204,140);white-space:pre}</style><g font-family="&#x27;Fira Code&#x27;,Monaco,Consolas,Menlo,&#x27;Bitstream Vera Sans Mono&#x27;,&#x27;Powerline Symbols&#x27;,monospace" font-size="1.67" class="b"><defs><symbol id="a"><rect height="11" width="100" x="0" y="0" class="c"></rect></symbol></defs><rect height="21.71" width="100" class="a"></rect><svg x="0" y="0" width="100"><svg x="0"><use xlink:href="#a"></use><text x="0" y="1.67" class="d">TOST:</text><text x="12.024" y="1.67" class="e">✖</text><text x="14.027999999999999" y="1.67" class="e">Can&#x27;t</text><text x="20.04" y="1.67" class="e">accept</text><text x="27.054" y="1.67" class="e">(bio)equivalence</text><text x="0" y="3.8409999999999997" class="d">delta-TOST:</text><text x="12.024" y="3.8409999999999997" class="e">✖</text><text x="14.027999999999999" y="3.8409999999999997" class="e">Can&#x27;t</text><text x="20.04" y="3.8409999999999997" class="e">accept</text><text x="27.054" y="3.8409999999999997" class="e">(bio)equivalence</text><text x="0" y="8.183" class="d">Stand.</text><text x="7.013999999999999" y="8.183" class="d">Equiv.</text><text x="14.027999999999999" y="8.183" class="d">Region:</text><text x="25.05" y="8.183" class="d">|--------------0--------------|</text><text x="1.002" y="10.354" class="d">Corr.</text><text x="7.013999999999999" y="10.354" class="d">Equiv.</text><text x="14.027999999999999" y="10.354" class="d">Region:</text><text x="23.045999999999996" y="10.354" class="d">|----------------0----------------|</text><text x="16.032" y="12.525" class="d">TOST:</text><text x="26.052" y="12.525" class="f">(--------------x-------------</text><text x="55.10999999999999" y="12.525" class="e">--)</text><text x="10.02" y="14.696" class="d">delta-TOST:</text><text x="26.052" y="14.696" class="f">(--------------x--------------</text><text x="56.111999999999995" y="14.696" class="e">-)</text><text x="1.002" y="19.037999999999997" class="d">Standard</text><text x="10.02" y="19.037999999999997" class="d">Equiv.</text><text x="17.034" y="19.037999999999997" class="d">lim.</text><text x="22.043999999999997" y="19.037999999999997" class="d">=</text><text x="24.048" y="19.037999999999997" class="d">+/-</text><text x="28.055999999999997" y="19.037999999999997" class="d">0.22314</text><text x="0" y="21.209000000000003" class="d">Corrected</text><text x="10.02" y="21.209000000000003" class="d">Equiv.</text><text x="17.034" y="21.209000000000003" class="d">lim.</text><text x="22.043999999999997" y="21.209000000000003" class="d">=</text><text x="24.048" y="21.209000000000003" class="d">+/-</text><text x="28.055999999999997" y="21.209000000000003" class="d">0.25473</text></svg></svg></g></svg></svg>